<svg xmlns="http://www.w3.org/2000/svg" width="1031.496" height="545.441" viewBox="0 0 1031.496 545.441">
  <g id="ps5_psclassic" transform="translate(-584.534 -2818.57)">
    <g id="ps5" transform="translate(5080.613 5278)" opacity="0.5">
      <g id="矩形_709" data-name="矩形 709" transform="translate(-3822.451 -2302.515) rotate(-169)" fill="none" stroke="#747474" stroke-width="2">
        <rect width="16.338" height="31.716" rx="8.169" stroke="none"/>
        <rect x="1" y="1" width="14.338" height="29.716" rx="7.169" fill="none"/>
      </g>
      <g id="组_2441" data-name="组 2441" transform="translate(-4266.181 -2265.339)">
        <g id="联合_4" data-name="联合 4" transform="translate(0 0)" fill="none">
          <path d="M14.417,43.249A14.417,14.417,0,0,1,0,28.832V14.416A14.416,14.416,0,0,1,14.417,0h5.766a45.908,45.908,0,0,1,12.9,1.6v.016a6.424,6.424,0,0,1,1.908,1.1L51,17.627a4.805,4.805,0,0,1,0,7.034L34.99,39.57a6.726,6.726,0,0,1-1.082.715v0s-3.941,2.555-13.725,2.959Z" stroke="none"/>
          <path d="M 20.14086532592773 41.24892044067383 C 24.80922508239746 41.05281448364258 28.01346015930176 40.34320831298828 29.88089370727539 39.78157043457031 C 30.93789100646973 39.46366882324219 31.69590187072754 39.15653610229492 32.1795539855957 38.93523025512695 L 32.97627258300781 38.51581192016602 C 33.21530914306641 38.38997650146484 33.45320510864258 38.23455429077148 33.68427276611328 38.05330276489258 L 49.64156341552734 23.1966609954834 C 50.21791458129883 22.66012001037598 50.53532409667969 21.93097114562988 50.53532409667969 21.14352989196777 C 50.53532409667969 20.3560905456543 50.21791458129883 19.62693977355957 49.64148330688477 19.0903205871582 L 33.67662811279297 4.226640701293945 C 33.26186752319336 3.893383264541626 32.83610916137695 3.647604942321777 32.41030120849609 3.495700120925903 L 32.20436859130859 3.422235488891602 C 31.10647392272949 3.114427328109741 26.68115997314453 2.000000238418579 20.18254280090332 2.000000238418579 L 14.41659259796143 2.000000238418579 C 11.09989261627197 2.000000238418579 7.981782913208008 3.291410207748413 5.636652946472168 5.636340141296387 C 3.291522979736328 7.981280326843262 2.000002861022949 11.09918975830078 2.000002861022949 14.41573047637939 L 2.000002861022949 28.83232116699219 C 2.000002861022949 32.14894104003906 3.291542768478394 35.26702880859375 5.636713027954102 37.61220932006836 C 7.98188304901123 39.95737838745117 11.09997272491455 41.24892044067383 14.41659259796143 41.24892044067383 L 20.14086532592773 41.24892044067383 M 20.18254280090332 43.24892044067383 L 14.41659259796143 43.24892044067383 C 6.45447301864624 43.24892044067383 2.870483285732917e-06 36.79444885253906 2.870483285732917e-06 28.83232116699219 L 2.870483285732917e-06 14.41573047637939 C 2.870483285732917e-06 6.453600406646729 6.45447301864624 2.203369149356149e-07 14.41659259796143 2.203369149356149e-07 L 20.18254280090332 2.203369149356149e-07 C 28.14466285705566 2.203369149356149e-07 33.08196258544922 1.595880270004272 33.08196258544922 1.595880270004272 L 33.08230209350586 1.611980199813843 C 33.71822357177734 1.838840246200562 34.36176300048828 2.201450109481812 34.99010467529297 2.716900110244751 L 51.00431442260742 17.62652969360352 C 53.04566192626953 19.52688026428223 53.04566192626953 22.76017951965332 51.00431442260742 24.66053009033203 L 34.99010467529297 39.57015991210938 C 34.63429260253906 39.85649871826172 34.27202224731445 40.09389114379883 33.90793228149414 40.28556060791016 L 33.90801239013672 40.28982925415039 C 33.90801239013672 40.28982925415039 29.96717262268066 42.844970703125 20.18254280090332 43.24892044067383 Z" stroke="none" fill="#747474"/>
        </g>
        <g id="联合_5" data-name="联合 5" transform="translate(118.85 43.249) rotate(180)" fill="none">
          <path d="M14.417,0A14.417,14.417,0,0,0,0,14.417V28.833A14.416,14.416,0,0,0,14.417,43.249h5.766a45.907,45.907,0,0,0,12.9-1.6v-.016a6.424,6.424,0,0,0,1.908-1.1L51,25.622a4.805,4.805,0,0,0,0-7.034L34.99,3.679a6.726,6.726,0,0,0-1.082-.715v0S29.967.4,20.183,0Z" stroke="none"/>
          <path d="M 14.41658020019531 2 C 11.09996032714844 2 7.981880187988281 3.291538238525391 5.636711120605469 5.636707305908203 C 3.291538238525391 7.981887817382813 2 11.09997940063477 2 14.41659736633301 L 2 28.83318710327148 C 2 32.14972686767578 3.291519165039063 35.26763916015625 5.636650085449219 37.61257934570313 C 7.981769561767578 39.9575080871582 11.09988021850586 41.24891662597656 14.41658020019531 41.24891662597656 L 20.18252182006836 41.24891662597656 C 26.68342590332031 41.24891662597656 31.10957527160645 40.13368988037109 32.20326995849609 39.82706451416016 L 32.41027069091797 39.75321960449219 C 32.8360595703125 39.60131454467773 33.26185607910156 39.35551071166992 33.67657470703125 39.02229690551758 L 49.64151000976563 24.15852737426758 C 50.21786880493164 23.62197875976563 50.5352783203125 22.89281845092773 50.5352783203125 22.10537910461426 C 50.5352783203125 21.31794738769531 50.21786880493164 20.58879852294922 49.64144134521484 20.05217742919922 L 33.68428039550781 5.195644378662109 C 33.45317459106445 5.014366149902344 33.21524810791016 4.858913421630859 32.97625732421875 4.733108520507813 L 32.22409057617188 4.334190368652344 C 31.74297904968262 4.111576080322266 30.97089195251465 3.795181274414063 29.8808708190918 3.467350006103516 C 28.01343727111816 2.905708312988281 24.80920219421387 2.19610595703125 20.14084243774414 2 L 14.41658020019531 2 M 14.41658020019531 0 L 20.18252182006836 0 C 29.96714973449707 0.4039497375488281 33.90798950195313 2.959087371826172 33.90798950195313 2.959087371826172 L 33.90789794921875 2.963348388671875 C 34.27199935913086 3.155017852783203 34.63426208496094 3.392417907714844 34.99007034301758 3.678749084472656 L 51.00426864624023 18.58838844299316 C 53.04561996459961 20.48873901367188 53.04561996459961 23.7220287322998 51.00426864624023 25.62238883972168 L 34.99007034301758 40.53201675415039 C 34.36174011230469 41.04747009277344 33.71818923950195 41.41007995605469 33.08227920532227 41.63694000244141 L 33.08193206787109 41.65302658081055 C 33.08193206787109 41.65302658081055 28.14463996887207 43.24891662597656 20.18252182006836 43.24891662597656 L 14.41658020019531 43.24891662597656 C 6.454460144042969 43.24891662597656 0 36.79530715942383 0 28.83318710327148 L 0 14.41659736633301 C 0 6.4544677734375 6.454460144042969 0 14.41658020019531 0 Z" stroke="none" fill="#747474"/>
        </g>
      </g>
      <g id="组_2442" data-name="组 2442" transform="translate(-4185.13 -2303.14) rotate(90)">
        <g id="联合_4-2" data-name="联合 4" transform="translate(0 0)" fill="none">
          <path d="M14.417,43.249A14.417,14.417,0,0,1,0,28.832V14.416A14.416,14.416,0,0,1,14.417,0h5.766a45.908,45.908,0,0,1,12.9,1.6v.016a6.424,6.424,0,0,1,1.908,1.1L51,17.627a4.805,4.805,0,0,1,0,7.034L34.99,39.57a6.726,6.726,0,0,1-1.082.715v0s-3.941,2.555-13.725,2.959Z" stroke="none"/>
          <path d="M 20.14086532592773 41.24892044067383 C 24.80922508239746 41.05281448364258 28.01346015930176 40.34320831298828 29.88089370727539 39.78157043457031 C 30.93789100646973 39.46366882324219 31.69590187072754 39.15653610229492 32.1795539855957 38.93523025512695 L 32.97627258300781 38.51581192016602 C 33.21530914306641 38.38997650146484 33.45320510864258 38.23455429077148 33.68427276611328 38.05330276489258 L 49.64156341552734 23.1966609954834 C 50.21791458129883 22.66012001037598 50.53532409667969 21.93097114562988 50.53532409667969 21.14352989196777 C 50.53532409667969 20.3560905456543 50.21791458129883 19.62693977355957 49.64148330688477 19.0903205871582 L 33.67662811279297 4.226640701293945 C 33.26186752319336 3.893383264541626 32.83610916137695 3.647604942321777 32.41030120849609 3.495700120925903 L 32.20436859130859 3.422235488891602 C 31.10647392272949 3.114427328109741 26.68115997314453 2.000000238418579 20.18254280090332 2.000000238418579 L 14.41659259796143 2.000000238418579 C 11.09989261627197 2.000000238418579 7.981782913208008 3.291410207748413 5.636652946472168 5.636340141296387 C 3.291522979736328 7.981280326843262 2.000002861022949 11.09918975830078 2.000002861022949 14.41573047637939 L 2.000002861022949 28.83232116699219 C 2.000002861022949 32.14894104003906 3.291542768478394 35.26702880859375 5.636713027954102 37.61220932006836 C 7.98188304901123 39.95737838745117 11.09997272491455 41.24892044067383 14.41659259796143 41.24892044067383 L 20.14086532592773 41.24892044067383 M 20.18254280090332 43.24892044067383 L 14.41659259796143 43.24892044067383 C 6.45447301864624 43.24892044067383 2.870483285732917e-06 36.79444885253906 2.870483285732917e-06 28.83232116699219 L 2.870483285732917e-06 14.41573047637939 C 2.870483285732917e-06 6.453600406646729 6.45447301864624 2.203369149356149e-07 14.41659259796143 2.203369149356149e-07 L 20.18254280090332 2.203369149356149e-07 C 28.14466285705566 2.203369149356149e-07 33.08196258544922 1.595880270004272 33.08196258544922 1.595880270004272 L 33.08230209350586 1.611980199813843 C 33.71822357177734 1.838840246200562 34.36176300048828 2.201450109481812 34.99010467529297 2.716900110244751 L 51.00431442260742 17.62652969360352 C 53.04566192626953 19.52688026428223 53.04566192626953 22.76017951965332 51.00431442260742 24.66053009033203 L 34.99010467529297 39.57015991210938 C 34.63429260253906 39.85649871826172 34.27202224731445 40.09389114379883 33.90793228149414 40.28556060791016 L 33.90801239013672 40.28982925415039 C 33.90801239013672 40.28982925415039 29.96717262268066 42.844970703125 20.18254280090332 43.24892044067383 Z" stroke="none" fill="#747474"/>
        </g>
        <g id="联合_5-2" data-name="联合 5" transform="translate(118.85 43.249) rotate(180)" fill="none">
          <path d="M14.417,0A14.417,14.417,0,0,0,0,14.417V28.833A14.416,14.416,0,0,0,14.417,43.249h5.766a45.907,45.907,0,0,0,12.9-1.6v-.016a6.424,6.424,0,0,0,1.908-1.1L51,25.622a4.805,4.805,0,0,0,0-7.034L34.99,3.679a6.726,6.726,0,0,0-1.082-.715v0S29.967.4,20.183,0Z" stroke="none"/>
          <path d="M 14.41658020019531 2 C 11.09996032714844 2 7.981880187988281 3.291538238525391 5.636711120605469 5.636707305908203 C 3.291538238525391 7.981887817382813 2 11.09997940063477 2 14.41659736633301 L 2 28.83318710327148 C 2 32.14972686767578 3.291519165039063 35.26763916015625 5.636650085449219 37.61257934570313 C 7.981769561767578 39.9575080871582 11.09988021850586 41.24891662597656 14.41658020019531 41.24891662597656 L 20.18252182006836 41.24891662597656 C 26.68342590332031 41.24891662597656 31.10957527160645 40.13368988037109 32.20326995849609 39.82706451416016 L 32.41027069091797 39.75321960449219 C 32.8360595703125 39.60131454467773 33.26185607910156 39.35551071166992 33.67657470703125 39.02229690551758 L 49.64151000976563 24.15852737426758 C 50.21786880493164 23.62197875976563 50.5352783203125 22.89281845092773 50.5352783203125 22.10537910461426 C 50.5352783203125 21.31794738769531 50.21786880493164 20.58879852294922 49.64144134521484 20.05217742919922 L 33.68428039550781 5.195644378662109 C 33.45317459106445 5.014366149902344 33.21524810791016 4.858913421630859 32.97625732421875 4.733108520507813 L 32.22409057617188 4.334190368652344 C 31.74297904968262 4.111576080322266 30.97089195251465 3.795181274414063 29.8808708190918 3.467350006103516 C 28.01343727111816 2.905708312988281 24.80920219421387 2.19610595703125 20.14084243774414 2 L 14.41658020019531 2 M 14.41658020019531 0 L 20.18252182006836 0 C 29.96714973449707 0.4039497375488281 33.90798950195313 2.959087371826172 33.90798950195313 2.959087371826172 L 33.90789794921875 2.963348388671875 C 34.27199935913086 3.155017852783203 34.63426208496094 3.392417907714844 34.99007034301758 3.678749084472656 L 51.00426864624023 18.58838844299316 C 53.04561996459961 20.48873901367188 53.04561996459961 23.7220287322998 51.00426864624023 25.62238883972168 L 34.99007034301758 40.53201675415039 C 34.36174011230469 41.04747009277344 33.71818923950195 41.41007995605469 33.08227920532227 41.63694000244141 L 33.08193206787109 41.65302658081055 C 33.08193206787109 41.65302658081055 28.14463996887207 43.24891662597656 20.18252182006836 43.24891662597656 L 14.41658020019531 43.24891662597656 C 6.454460144042969 43.24891662597656 0 36.79530715942383 0 28.83318710327148 L 0 14.41659736633301 C 0 6.4544677734375 6.454460144042969 0 14.41658020019531 0 Z" stroke="none" fill="#747474"/>
        </g>
      </g>
      <g id="椭圆_2157" data-name="椭圆 2157" transform="translate(-3797.17 -2318.199)" fill="none" stroke="#747474" stroke-width="3">
        <circle cx="23.547" cy="23.547" r="23.547" stroke="none"/>
        <circle cx="23.547" cy="23.547" r="22.047" fill="none"/>
      </g>
      <g id="椭圆_2159" data-name="椭圆 2159" transform="translate(-3797.17 -2216.324)" fill="none" stroke="#747474" stroke-width="3">
        <circle cx="23.547" cy="23.547" r="23.547" stroke="none"/>
        <circle cx="23.547" cy="23.547" r="22.047" fill="none"/>
      </g>
      <g id="椭圆_2160" data-name="椭圆 2160" transform="translate(-3848.108 -2267.261)" fill="none" stroke="#747474" stroke-width="3">
        <circle cx="23.547" cy="23.547" r="23.547" stroke="none"/>
        <circle cx="23.547" cy="23.547" r="22.047" fill="none"/>
      </g>
      <g id="椭圆_2158" data-name="椭圆 2158" transform="translate(-3746.233 -2267.261)" fill="none" stroke="#747474" stroke-width="3">
        <circle cx="23.547" cy="23.547" r="23.547" stroke="none"/>
        <circle cx="23.547" cy="23.547" r="22.047" fill="none"/>
      </g>
      <g id="椭圆_2150" data-name="椭圆 2150" transform="translate(-4125.861 -2173.597)" fill="none" stroke="#747474" stroke-width="2">
        <circle cx="24.027" cy="24.027" r="24.027" stroke="none"/>
        <circle cx="24.027" cy="24.027" r="23.027" fill="none"/>
      </g>
      <g id="椭圆_2165" data-name="椭圆 2165" transform="translate(-3901.929 -2173.597)" fill="none" stroke="#747474" stroke-width="2">
        <circle cx="24.027" cy="24.027" r="24.027" stroke="none"/>
        <circle cx="24.027" cy="24.027" r="23.027" fill="none"/>
      </g>
      <path id="路径_3247" data-name="路径 3247" d="M-3216.452-353.385s6.951,27.57,35.968,28.22l166.584.059s33.6,1.166,38.809-40.954l15.317-73.826s5.863-27.7-12.753-30.052c0,0-141.785-15.909-243.924.62,0,0-21.185,3.325-18.9,25.648S-3216.452-353.385-3216.452-353.385Z" transform="translate(-892.753 -1895.512)" fill="none" stroke="#747474" stroke-width="3"/>
      <path id="路径_3401" data-name="路径 3401" d="M-4253.283-2343.77v-7.495s8.824-18.28,62.5-24.088c0,0,24.055-1.7,29.441,4.767l2.447,10.625s85.859-12.324,181.714-12.017,156.115,11.932,156.115,11.932l1.711-10.791s11.248-8.049,39.775-3.574c0,0,42.791,6.014,52.16,22.514v8.25l8.061,1.529a6.147,6.147,0,0,1,3.883,2.5c1.158,2.016,59.255,119.619,67.216,211.79,0,0,26.982,176.05-39.458,203.84l-47.427,7.984s-7.231.686-12.909-12.3l-43.713-104.227s-23.518-66.014-75.351-44.089c0,0-6.623,1.636-25.033,1.12s-199.287,0-199.287,0-12.078,1.692-22.48-1.216c0,0-49.265-20.125-76.864,48.247l-43.739,100.165s-3.748,10.06-11.319,12.21l-47.568-7.89s-57.981-11.164-39.607-200.49c0,0,18.874-122.157,66.081-211.313,0,0,2.525-5.863,5.936-6.423S-4253.283-2343.77-4253.283-2343.77Z" transform="translate(0 0)" fill="none" stroke="#747474" stroke-width="4"/>
      <g id="椭圆_2190" data-name="椭圆 2190" transform="translate(-4148.857 -2196.681)" fill="none" stroke="#747474" stroke-width="4">
        <circle cx="47.453" cy="47.453" r="47.453" stroke="none"/>
        <circle cx="47.453" cy="47.453" r="45.453" fill="none"/>
      </g>
      <g id="椭圆_2210" data-name="椭圆 2210" transform="translate(-3924.937 -2196.681)" fill="none" stroke="#747474" stroke-width="4">
        <circle cx="47.453" cy="47.453" r="47.453" stroke="none"/>
        <circle cx="47.453" cy="47.453" r="45.453" fill="none"/>
      </g>
    </g>
    <g id="路径_5086" data-name="路径 5086" transform="translate(917.277 2944.352) rotate(-11)" fill="none" opacity="0.5">
      <path d="M8.169,0a8.169,8.169,0,0,1,8.169,8.169V23.547A8.169,8.169,0,0,1,0,23.547V8.169A8.169,8.169,0,0,1,8.169,0Z" stroke="none"/>
      <path d="M 8.16923999786377 1.999994277954102 C 4.767510414123535 1.999994277954102 2 4.767505645751953 2 8.169235229492188 L 2 23.54663467407227 C 2 26.94835472106934 4.767510414123535 29.71586418151855 8.16923999786377 29.71586418151855 C 11.57097053527832 29.71586418151855 14.33847999572754 26.94835472106934 14.33847999572754 23.54663467407227 L 14.33847999572754 8.169235229492188 C 14.33847999572754 4.767505645751953 11.57097053527832 1.999994277954102 8.16923999786377 1.999994277954102 M 8.16923999786377 -5.7220458984375e-06 C 12.68099021911621 -5.7220458984375e-06 16.33847999572754 3.657495498657227 16.33847999572754 8.169235229492188 L 16.33847999572754 23.54663467407227 C 16.33847999572754 28.05837440490723 12.68099021911621 31.71586418151855 8.16923999786377 31.71586418151855 C 3.657489776611328 31.71586418151855 0 28.05837440490723 0 23.54663467407227 L 0 8.169235229492188 C 0 3.657495498657227 3.657489776611328 -5.7220458984375e-06 8.16923999786377 -5.7220458984375e-06 Z" stroke="none" fill="#747474"/>
    </g>
    <path id="路径_5166" data-name="路径 5166" d="M19.876,0A19.876,19.876,0,1,1,0,19.876,19.876,19.876,0,0,1,19.876,0Z" transform="translate(1071.017 3103.607)" fill="none" stroke="#747474" stroke-width="2" opacity="0.5"/>
    <path id="路径_5167" data-name="路径 5167" d="M2.28,0H3.6a.481.481,0,0,0,.48-.48v-6a.227.227,0,0,1,.24-.24H5.784a.469.469,0,0,1,.456.288L9.12-.384A.621.621,0,0,0,9.7,0H11.16a.429.429,0,0,0,.48-.432.818.818,0,0,0-.1-.384L8.76-6.48a.885.885,0,0,1-.12-.408c0-.216.192-.384.5-.576a4.746,4.746,0,0,0,2.5-4.3A4.893,4.893,0,0,0,6.6-16.8H2.28a.481.481,0,0,0-.48.48V-.48A.481.481,0,0,0,2.28,0ZM4.32-9a.227.227,0,0,1-.24-.24v-5.04a.227.227,0,0,1,.24-.24H6.6a2.6,2.6,0,0,1,2.688,2.76A2.6,2.6,0,0,1,6.6-9ZM18.288.24A5.025,5.025,0,0,0,21.36-.6a4.033,4.033,0,0,0,1.584-2.76.382.382,0,0,0-.408-.48H21.312a.542.542,0,0,0-.552.408A2.037,2.037,0,0,1,20.04-2.4a3.077,3.077,0,0,1-1.752.48,2.732,2.732,0,0,1-1.752-.552,3.029,3.029,0,0,1-.984-2.592.227.227,0,0,1,.24-.24h6.816a.481.481,0,0,0,.48-.48v-1.44a5.159,5.159,0,0,0-1.368-3.792,4.688,4.688,0,0,0-3.384-1.224,4.747,4.747,0,0,0-3.5,1.3A6.944,6.944,0,0,0,13.248-6c0,2.424.528,4.008,1.728,5.136A4.723,4.723,0,0,0,18.288.24ZM15.816-7.152a.227.227,0,0,1-.24-.24,2.977,2.977,0,0,1,.792-2.184,2.738,2.738,0,0,1,1.968-.744,2.511,2.511,0,0,1,1.872.744A2.977,2.977,0,0,1,21-7.392a.227.227,0,0,1-.24.24ZM29.952.24c2.736,0,4.464-1.416,4.464-3.648,0-2.136-1.08-3.168-3.912-3.72-2.136-.432-2.856-.864-2.856-1.752,0-.84.792-1.32,2.16-1.32,1.392,0,2.088.5,2.184,1.56a.481.481,0,0,0,.48.48h1.2c.336,0,.48-.192.48-.7,0-2.088-1.68-3.384-4.416-3.384-2.52,0-4.32,1.44-4.32,3.432s1.272,3.12,4.08,3.6c2.112.36,2.76.792,2.76,1.8,0,1.032-.864,1.584-2.448,1.584-1.68,0-2.544-.672-2.712-2.088a.466.466,0,0,0-.48-.48h-1.2c-.36,0-.48.192-.48.744C24.936-1.248,26.856.24,29.952.24Zm11.472,0A5.025,5.025,0,0,0,44.5-.6,4.033,4.033,0,0,0,46.08-3.36a.382.382,0,0,0-.408-.48H44.448a.542.542,0,0,0-.552.408,2.037,2.037,0,0,1-.72,1.032,3.077,3.077,0,0,1-1.752.48,2.732,2.732,0,0,1-1.752-.552,3.029,3.029,0,0,1-.984-2.592.227.227,0,0,1,.24-.24h6.816a.481.481,0,0,0,.48-.48v-1.44a5.159,5.159,0,0,0-1.368-3.792,4.688,4.688,0,0,0-3.384-1.224,4.747,4.747,0,0,0-3.5,1.3A6.944,6.944,0,0,0,36.384-6c0,2.424.528,4.008,1.728,5.136A4.723,4.723,0,0,0,41.424.24ZM38.952-7.152a.227.227,0,0,1-.24-.24A2.977,2.977,0,0,1,39.5-9.576a2.738,2.738,0,0,1,1.968-.744,2.511,2.511,0,0,1,1.872.744,2.977,2.977,0,0,1,.792,2.184.227.227,0,0,1-.24.24ZM53.9,0h1.32a.481.481,0,0,0,.48-.48v-1.2a.481.481,0,0,0-.48-.48H53.9c-1.3,0-1.92-.528-1.92-1.68V-9.48a.227.227,0,0,1,.24-.24h2.76a.481.481,0,0,0,.48-.48v-1.2a.481.481,0,0,0-.48-.48h-2.76a.227.227,0,0,1-.24-.24v-3.72a.481.481,0,0,0-.48-.48H50.3a.481.481,0,0,0-.48.48v3.72a.227.227,0,0,1-.24.24H47.9a.481.481,0,0,0-.48.48v1.2a.481.481,0,0,0,.48.48h1.68a.227.227,0,0,1,.24.24v5.64C49.824-1.3,51.192,0,53.9,0Z" transform="translate(1063.154 3260.454)" fill="#747474"/>
    <path id="路径_5087" data-name="路径 5087" d="M2.28,0H3.6a.481.481,0,0,0,.48-.48v-6a.227.227,0,0,1,.24-.24H5.784a.469.469,0,0,1,.456.288L9.12-.384A.621.621,0,0,0,9.7,0H11.16a.429.429,0,0,0,.48-.432.818.818,0,0,0-.1-.384L8.76-6.48a.885.885,0,0,1-.12-.408c0-.216.192-.384.5-.576a4.746,4.746,0,0,0,2.5-4.3A4.893,4.893,0,0,0,6.6-16.8H2.28a.481.481,0,0,0-.48.48V-.48A.481.481,0,0,0,2.28,0ZM4.32-9a.227.227,0,0,1-.24-.24v-5.04a.227.227,0,0,1,.24-.24H6.6a2.6,2.6,0,0,1,2.688,2.76A2.6,2.6,0,0,1,6.6-9Zm9.72,9h8.688a.442.442,0,0,0,.48-.48V-1.656a.431.431,0,0,0-.48-.48H16.68c-.24,0-.336-.216-.168-.408l4.464-5.088A6.773,6.773,0,0,0,23.04-12.48a4.385,4.385,0,0,0-4.608-4.56,4.422,4.422,0,0,0-4.68,4.632v.6a.453.453,0,0,0,.48.48H15.48a.481.481,0,0,0,.48-.48v-.36a2.4,2.4,0,0,1,2.472-2.712c1.44,0,2.256.888,2.256,2.472a5.147,5.147,0,0,1-1.536,3.552L13.776-2.64a.8.8,0,0,0-.216.6V-.48A.481.481,0,0,0,14.04,0Z" transform="translate(1538.239 2835.61)" fill="#747474"/>
    <path id="路径_5090" data-name="路径 5090" d="M2.28,0H3.6a.481.481,0,0,0,.48-.48v-6a.227.227,0,0,1,.24-.24H5.784a.469.469,0,0,1,.456.288L9.12-.384A.621.621,0,0,0,9.7,0H11.16a.429.429,0,0,0,.48-.432.818.818,0,0,0-.1-.384L8.76-6.48a.885.885,0,0,1-.12-.408c0-.216.192-.384.5-.576a4.746,4.746,0,0,0,2.5-4.3A4.893,4.893,0,0,0,6.6-16.8H2.28a.481.481,0,0,0-.48.48V-.48A.481.481,0,0,0,2.28,0ZM4.32-9a.227.227,0,0,1-.24-.24v-5.04a.227.227,0,0,1,.24-.24H6.6a2.6,2.6,0,0,1,2.688,2.76A2.6,2.6,0,0,1,6.6-9ZM17.688,0H18.96a.481.481,0,0,0,.48-.48V-16.32a.481.481,0,0,0-.48-.48H17.472a.739.739,0,0,0-.48.216L13.344-13.1a1.084,1.084,0,0,0-.264.792v1.464a.3.3,0,0,0,.528.192l3.384-3.1a.125.125,0,0,1,.216.1V-.48A.481.481,0,0,0,17.688,0Z" transform="translate(1539.724 2903.942)" fill="#747474"/>
    <path id="路径_5093" data-name="路径 5093" d="M0,0H170.829" transform="translate(657.356 2827.98)" fill="none" stroke="#747474" stroke-linecap="round" stroke-width="2"/>
    <path id="路径_5094" data-name="路径 5094" d="M0,0H170.829" transform="translate(657.356 2896.312)" fill="none" stroke="#747474" stroke-linecap="round" stroke-width="2"/>
    <path id="路径_5169" data-name="路径 5169" d="M0,0H152.143" transform="translate(657.356 3032.975)" fill="none" stroke="#747474" stroke-linecap="round" stroke-width="2"/>
    <path id="路径_5170" data-name="路径 5170" d="M0,0H269.143" transform="translate(657.356 3133.975)" fill="none" stroke="#747474" stroke-linecap="round" stroke-width="2"/>
    <path id="路径_5095" data-name="路径 5095" d="M2.28,0H9.7a.481.481,0,0,0,.48-.48V-1.8a.481.481,0,0,0-.48-.48H4.32a.227.227,0,0,1-.24-.24v-13.8a.481.481,0,0,0-.48-.48H2.28a.481.481,0,0,0-.48.48V-.48A.481.481,0,0,0,2.28,0Zm9.7,0h8.688a.442.442,0,0,0,.48-.48V-1.656a.431.431,0,0,0-.48-.48H14.616c-.24,0-.336-.216-.168-.408l4.464-5.088a6.773,6.773,0,0,0,2.064-4.848,4.385,4.385,0,0,0-4.608-4.56,4.422,4.422,0,0,0-4.68,4.632v.6a.453.453,0,0,0,.48.48h1.248a.481.481,0,0,0,.48-.48v-.36a2.4,2.4,0,0,1,2.472-2.712c1.44,0,2.256.888,2.256,2.472a5.147,5.147,0,0,1-1.536,3.552L11.712-2.64a.8.8,0,0,0-.216.6V-.48A.481.481,0,0,0,11.976,0Z" transform="translate(615 2835.61)" fill="#747474"/>
    <path id="路径_5097" data-name="路径 5097" d="M2.28,0H9.7a.481.481,0,0,0,.48-.48V-1.8a.481.481,0,0,0-.48-.48H4.32a.227.227,0,0,1-.24-.24v-13.8a.481.481,0,0,0-.48-.48H2.28a.481.481,0,0,0-.48.48V-.48A.481.481,0,0,0,2.28,0ZM15.624,0H16.9a.481.481,0,0,0,.48-.48V-16.32a.481.481,0,0,0-.48-.48H15.408a.739.739,0,0,0-.48.216L11.28-13.1a1.084,1.084,0,0,0-.264.792v1.464a.3.3,0,0,0,.528.192l3.384-3.1a.125.125,0,0,1,.216.1V-.48A.481.481,0,0,0,15.624,0Z" transform="translate(618 2902.942)" fill="#747474"/>
    <path id="路径_3535" data-name="路径 3535" d="M10.148,0,38.3,32.427,68.6,67.446" transform="translate(1299.548 3033.682)" fill="none" stroke="#747474" stroke-linecap="round" stroke-width="2"/>
    <path id="路径_5171" data-name="路径 5171" d="M193.111,0H0" transform="translate(1329.53 2964.643)" fill="none" stroke="#747474" stroke-linecap="round" stroke-width="2"/>
    <path id="路径_5172" data-name="路径 5172" d="M136.663,0H0" transform="translate(1385.978 3032.975)" fill="none" stroke="#747474" stroke-linecap="round" stroke-width="2"/>
    <path id="路径_5173" data-name="路径 5173" d="M25.253,0H0" transform="translate(1283.481 3032.975)" fill="none" stroke="#747474" stroke-linecap="round" stroke-width="2"/>
    <path id="路径_5174" data-name="路径 5174" d="M155.974,0H0" transform="translate(1368.152 3101.306)" fill="none" stroke="#747474" stroke-linecap="round" stroke-width="2"/>
    <path id="路径_5175" data-name="路径 5175" d="M150.032,0H0" transform="translate(1374.095 3169.637)" fill="none" stroke="#747474" stroke-linecap="round" stroke-width="2"/>
    <path id="路径_5176" data-name="路径 5176" d="M0,10.4,8.913,0" transform="translate(1319.875 2964.643)" fill="none" stroke="#747474" stroke-linecap="round" stroke-width="2"/>
    <path id="路径_3536" data-name="路径 3536" d="M-2.008,0,60.533,72.034" transform="translate(1312.958 3097.558)" fill="none" stroke="#747474" stroke-linecap="round" stroke-width="2"/>
    <path id="路径_5177" data-name="路径 5177" d="M2.28,0H6.72a4.976,4.976,0,0,0,4.656-2.76c.624-1.3.672-3.408.672-5.64s-.048-4.344-.672-5.64A4.976,4.976,0,0,0,6.72-16.8H2.28a.481.481,0,0,0-.48.48V-.48A.481.481,0,0,0,2.28,0ZM4.32-2.28a.227.227,0,0,1-.24-.24V-14.28a.227.227,0,0,1,.24-.24h2.4a2.861,2.861,0,0,1,2.5,1.464c.456.864.48,2.88.48,4.656s-.024,3.792-.48,4.656A2.861,2.861,0,0,1,6.72-2.28ZM15.048-5.544H20.88a.481.481,0,0,0,.48-.48v-1.2a.481.481,0,0,0-.48-.48H15.048a.481.481,0,0,0-.48.48v1.2A.481.481,0,0,0,15.048-5.544Zm14.112-6.7c-1.944,0-2.3.912-2.808.912-.192,0-.336-.12-.48-.5-.048-.12-.144-.168-.336-.168H24.72a.481.481,0,0,0-.48.48V4.32a.481.481,0,0,0,.48.48h1.2a.481.481,0,0,0,.48-.48V.24c0-.552.12-.768.432-.768.432,0,.936.768,2.52.768A4.051,4.051,0,0,0,33.024-1.8,8.5,8.5,0,0,0,33.792-6a9.5,9.5,0,0,0-.744-4.176A4.115,4.115,0,0,0,29.16-12.24Zm-.216,2.16a2.423,2.423,0,0,1,2.256,1.1A6.036,6.036,0,0,1,31.632-6,6.328,6.328,0,0,1,31.2-3.024a2.4,2.4,0,0,1-2.256,1.1,2.423,2.423,0,0,1-2.256-1.1A6.036,6.036,0,0,1,26.256-6a6.036,6.036,0,0,1,.432-2.976A2.423,2.423,0,0,1,28.944-10.08ZM40.248.24c1.776,0,2.376-.912,2.808-.912.24,0,.36.288.48.5A.363.363,0,0,0,43.872,0h.816a.481.481,0,0,0,.48-.48V-8.4c0-2.52-1.512-3.84-4.368-3.84-2.76,0-4.368,1.272-4.368,3.432a.431.431,0,0,0,.48.48h1.1c.384,0,.552-.12.552-.408,0-1.032.816-1.608,2.208-1.608,1.44,0,2.232.648,2.232,1.872v.984a.227.227,0,0,1-.24.24H40.2c-2.736,0-4.32,1.272-4.32,3.672C35.88-1.272,37.608.24,40.248.24Zm.168-1.992c-1.512,0-2.3-.648-2.3-1.872,0-1.128.744-1.656,2.328-1.656h2.52a.227.227,0,0,1,.24.24v.768C43.2-2.568,42.312-1.752,40.416-1.752ZM52.368.24c1.944,0,2.3-.912,2.808-.912.192,0,.312.12.48.5.048.12.144.168.336.168h.816a.481.481,0,0,0,.48-.48V-16.56a.481.481,0,0,0-.48-.48h-1.2a.481.481,0,0,0-.48.48v4.32c0,.552-.12.768-.432.768-.432,0-.936-.768-2.52-.768A4.051,4.051,0,0,0,48.5-10.2,8.784,8.784,0,0,0,47.736-6a9.5,9.5,0,0,0,.744,4.176A4.236,4.236,0,0,0,52.368.24Zm.216-2.16a2.423,2.423,0,0,1-2.256-1.1A6.036,6.036,0,0,1,49.9-6a6.328,6.328,0,0,1,.432-2.976,2.4,2.4,0,0,1,2.256-1.1,2.423,2.423,0,0,1,2.256,1.1A6.036,6.036,0,0,1,55.272-6a6.036,6.036,0,0,1-.432,2.976A2.423,2.423,0,0,1,52.584-1.92Z" transform="translate(582.734 3038.576)" fill="#747474"/>
    <path id="路径_5178" data-name="路径 5178" d="M2.28,0H6.72a4.976,4.976,0,0,0,4.656-2.76c.624-1.3.672-3.408.672-5.64s-.048-4.344-.672-5.64A4.976,4.976,0,0,0,6.72-16.8H2.28a.481.481,0,0,0-.48.48V-.48A.481.481,0,0,0,2.28,0ZM4.32-2.28a.227.227,0,0,1-.24-.24V-14.28a.227.227,0,0,1,.24-.24h2.4a2.861,2.861,0,0,1,2.5,1.464c.456.864.48,2.88.48,4.656s-.024,3.792-.48,4.656A2.861,2.861,0,0,1,6.72-2.28ZM15.048-5.544H20.88a.481.481,0,0,0,.48-.48v-1.2a.481.481,0,0,0-.48-.48H15.048a.481.481,0,0,0-.48.48v1.2A.481.481,0,0,0,15.048-5.544Zm14.112-6.7c-1.944,0-2.3.912-2.808.912-.192,0-.336-.12-.48-.5-.048-.12-.144-.168-.336-.168H24.72a.481.481,0,0,0-.48.48V4.32a.481.481,0,0,0,.48.48h1.2a.481.481,0,0,0,.48-.48V.24c0-.552.12-.768.432-.768.432,0,.936.768,2.52.768A4.051,4.051,0,0,0,33.024-1.8,8.5,8.5,0,0,0,33.792-6a9.5,9.5,0,0,0-.744-4.176A4.115,4.115,0,0,0,29.16-12.24Zm-.216,2.16a2.423,2.423,0,0,1,2.256,1.1A6.036,6.036,0,0,1,31.632-6,6.328,6.328,0,0,1,31.2-3.024a2.4,2.4,0,0,1-2.256,1.1,2.423,2.423,0,0,1-2.256-1.1A6.036,6.036,0,0,1,26.256-6a6.036,6.036,0,0,1,.432-2.976A2.423,2.423,0,0,1,28.944-10.08ZM40.248.24c1.776,0,2.376-.912,2.808-.912.24,0,.36.288.48.5A.363.363,0,0,0,43.872,0h.816a.481.481,0,0,0,.48-.48V-8.4c0-2.52-1.512-3.84-4.368-3.84-2.76,0-4.368,1.272-4.368,3.432a.431.431,0,0,0,.48.48h1.1c.384,0,.552-.12.552-.408,0-1.032.816-1.608,2.208-1.608,1.44,0,2.232.648,2.232,1.872v.984a.227.227,0,0,1-.24.24H40.2c-2.736,0-4.32,1.272-4.32,3.672C35.88-1.272,37.608.24,40.248.24Zm.168-1.992c-1.512,0-2.3-.648-2.3-1.872,0-1.128.744-1.656,2.328-1.656h2.52a.227.227,0,0,1,.24.24v.768C43.2-2.568,42.312-1.752,40.416-1.752ZM52.368.24c1.944,0,2.3-.912,2.808-.912.192,0,.312.12.48.5.048.12.144.168.336.168h.816a.481.481,0,0,0,.48-.48V-16.56a.481.481,0,0,0-.48-.48h-1.2a.481.481,0,0,0-.48.48v4.32c0,.552-.12.768-.432.768-.432,0-.936-.768-2.52-.768A4.051,4.051,0,0,0,48.5-10.2,8.784,8.784,0,0,0,47.736-6a9.5,9.5,0,0,0,.744,4.176A4.236,4.236,0,0,0,52.368.24Zm.216-2.16a2.423,2.423,0,0,1-2.256-1.1A6.036,6.036,0,0,1,49.9-6a6.328,6.328,0,0,1,.432-2.976,2.4,2.4,0,0,1,2.256-1.1,2.423,2.423,0,0,1,2.256,1.1A6.036,6.036,0,0,1,55.272-6a6.036,6.036,0,0,1-.432,2.976A2.423,2.423,0,0,1,52.584-1.92Z" transform="translate(582.734 3141.576)" fill="#747474"/>
    <path id="路径_5099" data-name="路径 5099" d="M6.288.24c3.168,0,5.352-1.968,5.352-4.848a5.057,5.057,0,0,0-4.2-5.04c-2.808-.624-3.792-1.392-3.792-2.88,0-1.368,1.032-2.232,2.736-2.232s2.736.84,2.736,2.28v.312a.481.481,0,0,0,.48.48h1.32a.481.481,0,0,0,.48-.48v-.312c0-2.832-1.9-4.56-4.968-4.56-2.952,0-5.136,1.7-5.136,4.56,0,2.616,1.68,4.176,4.512,4.824,2.472.576,3.48,1.488,3.48,3.144,0,1.464-1.224,2.472-2.976,2.472C4.44-2.04,3.144-3.168,3.144-4.8v-.384a.481.481,0,0,0-.48-.48H1.32a.481.481,0,0,0-.48.48V-4.8C.84-1.752,3,.24,6.288.24ZM14.76,0h7.8a.481.481,0,0,0,.48-.48V-1.8a.481.481,0,0,0-.48-.48H16.8a.227.227,0,0,1-.24-.24V-7.2a.227.227,0,0,1,.24-.24h5.448a.481.481,0,0,0,.48-.48V-9.24a.481.481,0,0,0-.48-.48H16.8a.227.227,0,0,1-.24-.24v-4.32a.227.227,0,0,1,.24-.24h5.712a.481.481,0,0,0,.48-.48v-1.32a.481.481,0,0,0-.48-.48H14.76a.481.481,0,0,0-.48.48V-.48A.481.481,0,0,0,14.76,0ZM26.4,0h7.416a.481.481,0,0,0,.48-.48V-1.8a.481.481,0,0,0-.48-.48H28.44a.227.227,0,0,1-.24-.24v-13.8a.481.481,0,0,0-.48-.48H26.4a.481.481,0,0,0-.48.48V-.48A.481.481,0,0,0,26.4,0ZM36.936,0h7.8a.481.481,0,0,0,.48-.48V-1.8a.481.481,0,0,0-.48-.48h-5.76a.227.227,0,0,1-.24-.24V-7.2a.227.227,0,0,1,.24-.24h5.448a.481.481,0,0,0,.48-.48V-9.24a.481.481,0,0,0-.48-.48H38.976a.227.227,0,0,1-.24-.24v-4.32a.227.227,0,0,1,.24-.24h5.712a.481.481,0,0,0,.48-.48v-1.32a.481.481,0,0,0-.48-.48H36.936a.481.481,0,0,0-.48.48V-.48A.481.481,0,0,0,36.936,0ZM53.064.24a5.023,5.023,0,0,0,5.4-5.424.474.474,0,0,0-.48-.432H56.64a.481.481,0,0,0-.48.48,2.851,2.851,0,0,1-3.1,3.1,2.885,2.885,0,0,1-2.712-1.632,13.859,13.859,0,0,1-.5-4.728,13.859,13.859,0,0,1,.5-4.728,2.885,2.885,0,0,1,2.712-1.632,2.851,2.851,0,0,1,3.1,3.1.481.481,0,0,0,.48.48h1.344a.474.474,0,0,0,.48-.432,5.023,5.023,0,0,0-5.4-5.424,5.1,5.1,0,0,0-4.824,2.832C47.52-12.7,47.5-10.632,47.5-8.4s.024,4.3.744,5.808A5.1,5.1,0,0,0,53.064.24ZM63.648,0h1.32a.481.481,0,0,0,.48-.48v-13.8a.227.227,0,0,1,.24-.24h3.168a.481.481,0,0,0,.48-.48v-1.32a.481.481,0,0,0-.48-.48h-9.12a.481.481,0,0,0-.48.48V-15a.481.481,0,0,0,.48.48h3.192a.227.227,0,0,1,.24.24V-.48A.481.481,0,0,0,63.648,0Z" transform="translate(891.734 2838.576)" fill="#747474"/>
    <path id="路径_5102" data-name="路径 5102" d="M6.288.24c3.168,0,5.352-1.968,5.352-4.848a5.057,5.057,0,0,0-4.2-5.04c-2.808-.624-3.792-1.392-3.792-2.88,0-1.368,1.032-2.232,2.736-2.232s2.736.84,2.736,2.28v.312a.481.481,0,0,0,.48.48h1.32a.481.481,0,0,0,.48-.48v-.312c0-2.832-1.9-4.56-4.968-4.56-2.952,0-5.136,1.7-5.136,4.56,0,2.616,1.68,4.176,4.512,4.824,2.472.576,3.48,1.488,3.48,3.144,0,1.464-1.224,2.472-2.976,2.472C4.44-2.04,3.144-3.168,3.144-4.8v-.384a.481.481,0,0,0-.48-.48H1.32a.481.481,0,0,0-.48.48V-4.8C.84-1.752,3,.24,6.288.24ZM16.752,0h1.32a.481.481,0,0,0,.48-.48v-13.8a.227.227,0,0,1,.24-.24H21.96a.481.481,0,0,0,.48-.48v-1.32a.481.481,0,0,0-.48-.48H12.84a.481.481,0,0,0-.48.48V-15a.481.481,0,0,0,.48.48h3.192a.227.227,0,0,1,.24.24V-.48A.481.481,0,0,0,16.752,0Zm5.616,0H23.76a.483.483,0,0,0,.456-.36l1.056-3.672a.461.461,0,0,1,.456-.336h3.984a.442.442,0,0,1,.456.336L31.224-.36A.483.483,0,0,0,31.68,0h1.392a.38.38,0,0,0,.408-.336,1.331,1.331,0,0,0-.072-.408l-4.392-15.7a.462.462,0,0,0-.456-.36H26.88a.462.462,0,0,0-.456.36L22.032-.744a1.331,1.331,0,0,0-.072.408A.38.38,0,0,0,22.368,0Zm3.864-6.6c-.144,0-.24-.072-.192-.264l1.56-6.7c.024-.1.048-.144.1-.144h.048c.048,0,.072.048.1.144l1.56,6.7c.048.192-.048.264-.192.264ZM36.12,0h1.32a.481.481,0,0,0,.48-.48v-6a.227.227,0,0,1,.24-.24h1.464a.469.469,0,0,1,.456.288L42.96-.384A.621.621,0,0,0,43.536,0H45a.429.429,0,0,0,.48-.432.818.818,0,0,0-.1-.384L42.6-6.48a.885.885,0,0,1-.12-.408c0-.216.192-.384.5-.576a4.746,4.746,0,0,0,2.5-4.3,4.893,4.893,0,0,0-5.04-5.04H36.12a.481.481,0,0,0-.48.48V-.48A.481.481,0,0,0,36.12,0Zm2.04-9a.227.227,0,0,1-.24-.24v-5.04a.227.227,0,0,1,.24-.24h2.28a2.6,2.6,0,0,1,2.688,2.76A2.6,2.6,0,0,1,40.44-9ZM50.712,0h1.32a.481.481,0,0,0,.48-.48v-13.8a.227.227,0,0,1,.24-.24H55.92A.481.481,0,0,0,56.4-15v-1.32a.481.481,0,0,0-.48-.48H46.8a.481.481,0,0,0-.48.48V-15a.481.481,0,0,0,.48.48h3.192a.227.227,0,0,1,.24.24V-.48A.481.481,0,0,0,50.712,0Z" transform="translate(1226.734 2838.576)" fill="#747474"/>
    <path id="路径_5104" data-name="路径 5104" d="M13.369,14.855,0,0" transform="translate(828.185 2896.312)" fill="none" stroke="#747474" stroke-linecap="round" stroke-width="2"/>
    <path id="路径_5105" data-name="路径 5105" d="M0,0,62.39,71.3" transform="translate(828.928 2828.723)" fill="none" stroke="#747474" stroke-linecap="round" stroke-width="2"/>
    <path id="路径_5106" data-name="路径 5106" d="M170.829,0H0" transform="translate(1351.813 2827.98)" fill="none" stroke="#747474" stroke-linecap="round" stroke-width="2"/>
    <path id="路径_5107" data-name="路径 5107" d="M170.829,0H0" transform="translate(1351.813 2896.312)" fill="none" stroke="#747474" stroke-linecap="round" stroke-width="2"/>
    <path id="路径_5108" data-name="路径 5108" d="M0,14.855,13.369,0" transform="translate(1338.443 2896.312)" fill="none" stroke="#747474" stroke-linecap="round" stroke-width="2"/>
    <path id="路径_5109" data-name="路径 5109" d="M62.39,0,0,71.3" transform="translate(1288.68 2828.723)" fill="none" stroke="#747474" stroke-linecap="round" stroke-width="2"/>
    <path id="路径_5110" data-name="路径 5110" d="M0,0V96.555" transform="translate(927.217 2855.016)" fill="none" stroke="#747474" stroke-linecap="round" stroke-width="2"/>
    <path id="路径_5111" data-name="路径 5111" d="M0,0V96.555" transform="translate(1254.217 2855.016)" fill="none" stroke="#747474" stroke-linecap="round" stroke-width="2"/>
    <path id="路径_5179" data-name="路径 5179" d="M0,0V78.73" transform="translate(1091.142 3150.326)" fill="none" stroke="#747474" stroke-linecap="round" stroke-width="2"/>
    <path id="路径_5180" data-name="路径 5180" d="M6.768.24a5.023,5.023,0,0,0,5.4-5.424.474.474,0,0,0-.48-.432H10.344a.481.481,0,0,0-.48.48,2.851,2.851,0,0,1-3.1,3.1A2.885,2.885,0,0,1,4.056-3.672a13.859,13.859,0,0,1-.5-4.728,13.859,13.859,0,0,1,.5-4.728A2.885,2.885,0,0,1,6.768-14.76a2.851,2.851,0,0,1,3.1,3.1.481.481,0,0,0,.48.48h1.344a.474.474,0,0,0,.48-.432,5.023,5.023,0,0,0-5.4-5.424,5.1,5.1,0,0,0-4.824,2.832C1.224-12.7,1.2-10.632,1.2-8.4s.024,4.3.744,5.808A5.1,5.1,0,0,0,6.768.24Zm8.16-14.856H16.56A.379.379,0,0,0,16.944-15v-1.656a.4.4,0,0,0-.384-.384H14.928a.4.4,0,0,0-.384.384V-15A.379.379,0,0,0,14.928-14.616ZM15.12,0h1.248a.481.481,0,0,0,.48-.48V-11.52a.481.481,0,0,0-.48-.48H15.12a.481.481,0,0,0-.48.48V-.48A.481.481,0,0,0,15.12,0Zm5.328,0h1.2a.481.481,0,0,0,.48-.48V-6.24c0-2.544,1.7-3.5,3.6-3.5h.48a.481.481,0,0,0,.48-.48v-1.3a.481.481,0,0,0-.48-.48h-.48c-2.568,0-2.976,1.32-3.552,1.32-.36,0-.36-.528-.432-.84-.072-.336-.216-.48-.48-.48h-.816a.481.481,0,0,0-.48.48V-.48A.481.481,0,0,0,20.448,0Zm12.12.24a4.867,4.867,0,0,0,3.048-.96A3.929,3.929,0,0,0,37.08-3.84c0-.312-.12-.48-.36-.48H35.352c-.288,0-.456.144-.456.408a1.861,1.861,0,0,1-.648,1.464,2.75,2.75,0,0,1-1.68.528,2.7,2.7,0,0,1-2.208-.96A5.163,5.163,0,0,1,29.76-6c0-1.68.12-2.52.624-3.192a2.7,2.7,0,0,1,2.16-.888,2.524,2.524,0,0,1,1.608.5,1.912,1.912,0,0,1,.72,1.512.415.415,0,0,0,.456.384H36.6a.426.426,0,0,0,.408-.48,4.06,4.06,0,0,0-1.32-3,4.71,4.71,0,0,0-3.144-1.08,5,5,0,0,0-3.552,1.32c-1.2,1.248-1.464,2.856-1.464,4.92,0,1.992.192,3.768,1.512,4.968A4.984,4.984,0,0,0,32.568.24ZM40.056,0h1.2a.481.481,0,0,0,.48-.48V-16.56a.481.481,0,0,0-.48-.48h-1.2a.481.481,0,0,0-.48.48V-.48A.481.481,0,0,0,40.056,0Zm9.408.24A5.025,5.025,0,0,0,52.536-.6,4.033,4.033,0,0,0,54.12-3.36a.382.382,0,0,0-.408-.48H52.488a.542.542,0,0,0-.552.408,2.037,2.037,0,0,1-.72,1.032,3.077,3.077,0,0,1-1.752.48,2.732,2.732,0,0,1-1.752-.552,3.029,3.029,0,0,1-.984-2.592.227.227,0,0,1,.24-.24h6.816a.481.481,0,0,0,.48-.48v-1.44A5.159,5.159,0,0,0,52.9-11.016a4.688,4.688,0,0,0-3.384-1.224,4.747,4.747,0,0,0-3.5,1.3A6.944,6.944,0,0,0,44.424-6c0,2.424.528,4.008,1.728,5.136A4.723,4.723,0,0,0,49.464.24ZM46.992-7.152a.227.227,0,0,1-.24-.24,2.977,2.977,0,0,1,.792-2.184,2.738,2.738,0,0,1,1.968-.744,2.511,2.511,0,0,1,1.872.744,2.977,2.977,0,0,1,.792,2.184.227.227,0,0,1-.24.24Z" transform="translate(1539.734 3038.576)" fill="#747474"/>
    <path id="路径_5181" data-name="路径 5181" d="M6.768.24a5.023,5.023,0,0,0,5.4-5.424.474.474,0,0,0-.48-.432H10.344a.481.481,0,0,0-.48.48,2.851,2.851,0,0,1-3.1,3.1A2.885,2.885,0,0,1,4.056-3.672a13.859,13.859,0,0,1-.5-4.728,13.859,13.859,0,0,1,.5-4.728A2.885,2.885,0,0,1,6.768-14.76a2.851,2.851,0,0,1,3.1,3.1.481.481,0,0,0,.48.48h1.344a.474.474,0,0,0,.48-.432,5.023,5.023,0,0,0-5.4-5.424,5.1,5.1,0,0,0-4.824,2.832C1.224-12.7,1.2-10.632,1.2-8.4s.024,4.3.744,5.808A5.1,5.1,0,0,0,6.768.24ZM15.12,0h1.2a.481.481,0,0,0,.48-.48V-6.24c0-2.544,1.7-3.5,3.6-3.5h.48a.481.481,0,0,0,.48-.48v-1.3a.481.481,0,0,0-.48-.48H20.4c-2.568,0-2.976,1.32-3.552,1.32-.36,0-.36-.528-.432-.84-.072-.336-.216-.48-.48-.48H15.12a.481.481,0,0,0-.48.48V-.48A.481.481,0,0,0,15.12,0ZM27.168.24a4.671,4.671,0,0,0,4.08-1.992A7.189,7.189,0,0,0,32.136-6a7.189,7.189,0,0,0-.888-4.248,4.671,4.671,0,0,0-4.08-1.992,4.671,4.671,0,0,0-4.08,1.992A7.189,7.189,0,0,0,22.2-6a7.189,7.189,0,0,0,.888,4.248A4.671,4.671,0,0,0,27.168.24Zm0-2.16A2.6,2.6,0,0,1,24.96-3.048,5.354,5.354,0,0,1,24.432-6a5.354,5.354,0,0,1,.528-2.952,2.6,2.6,0,0,1,2.208-1.128,2.6,2.6,0,0,1,2.208,1.128A5.354,5.354,0,0,1,29.9-6a5.354,5.354,0,0,1-.528,2.952A2.6,2.6,0,0,1,27.168-1.92ZM39,.24c2.736,0,4.464-1.416,4.464-3.648,0-2.136-1.08-3.168-3.912-3.72C37.416-7.56,36.7-7.992,36.7-8.88c0-.84.792-1.32,2.16-1.32,1.392,0,2.088.5,2.184,1.56a.481.481,0,0,0,.48.48h1.2c.336,0,.48-.192.48-.7,0-2.088-1.68-3.384-4.416-3.384-2.52,0-4.32,1.44-4.32,3.432s1.272,3.12,4.08,3.6c2.112.36,2.76.792,2.76,1.8,0,1.032-.864,1.584-2.448,1.584-1.68,0-2.544-.672-2.712-2.088a.466.466,0,0,0-.48-.48h-1.2c-.36,0-.48.192-.48.744C33.984-1.248,35.9.24,39,.24Zm11.04,0C52.776.24,54.5-1.176,54.5-3.408c0-2.136-1.08-3.168-3.912-3.72-2.136-.432-2.856-.864-2.856-1.752,0-.84.792-1.32,2.16-1.32,1.392,0,2.088.5,2.184,1.56a.481.481,0,0,0,.48.48h1.2c.336,0,.48-.192.48-.7,0-2.088-1.68-3.384-4.416-3.384-2.52,0-4.32,1.44-4.32,3.432s1.272,3.12,4.08,3.6c2.112.36,2.76.792,2.76,1.8,0,1.032-.864,1.584-2.448,1.584-1.68,0-2.544-.672-2.712-2.088a.466.466,0,0,0-.48-.48H45.5c-.36,0-.48.192-.48.744C45.024-1.248,46.944.24,50.04.24Z" transform="translate(1539.734 3177.576)" fill="#747474"/>
    <path id="路径_5182" data-name="路径 5182" d="M6.288.24c3.168,0,5.352-1.968,5.352-4.848a5.057,5.057,0,0,0-4.2-5.04c-2.808-.624-3.792-1.392-3.792-2.88,0-1.368,1.032-2.232,2.736-2.232s2.736.84,2.736,2.28v.312a.481.481,0,0,0,.48.48h1.32a.481.481,0,0,0,.48-.48v-.312c0-2.832-1.9-4.56-4.968-4.56-2.952,0-5.136,1.7-5.136,4.56,0,2.616,1.68,4.176,4.512,4.824,2.472.576,3.48,1.488,3.48,3.144,0,1.464-1.224,2.472-2.976,2.472C4.44-2.04,3.144-3.168,3.144-4.8v-.384a.481.481,0,0,0-.48-.48H1.32a.481.481,0,0,0-.48.48V-4.8C.84-1.752,3,.24,6.288.24ZM18.24-12.24a4.115,4.115,0,0,0-3.888,2.064A9.5,9.5,0,0,0,13.608-6a8.5,8.5,0,0,0,.768,4.2A4.051,4.051,0,0,0,18.048.24c1.584,0,2.088-.768,2.52-.768.312,0,.432.216.432.768V4.32a.481.481,0,0,0,.48.48h1.2a.481.481,0,0,0,.48-.48V-11.52a.481.481,0,0,0-.48-.48h-.816c-.192,0-.288.048-.336.168-.144.384-.288.5-.48.5C20.544-11.328,20.184-12.24,18.24-12.24Zm.216,2.16a2.423,2.423,0,0,1,2.256,1.1A6.036,6.036,0,0,1,21.144-6a6.036,6.036,0,0,1-.432,2.976,2.423,2.423,0,0,1-2.256,1.1,2.4,2.4,0,0,1-2.256-1.1A6.328,6.328,0,0,1,15.768-6,6.036,6.036,0,0,1,16.2-8.976,2.423,2.423,0,0,1,18.456-10.08ZM35.28-12h-1.2a.481.481,0,0,0-.48.48V-4.7A2.585,2.585,0,0,1,30.96-1.92c-1.728,0-2.64-1.128-2.64-2.9v-6.7a.481.481,0,0,0-.48-.48h-1.2a.481.481,0,0,0-.48.48v7.464c0,2.568,1.536,4.3,4.08,4.3,2.16,0,2.5-.96,3.024-.96.384,0,.456.312.624.552A.363.363,0,0,0,34.224,0H35.28a.481.481,0,0,0,.48-.48V-11.52A.481.481,0,0,0,35.28-12ZM42.648.24c1.776,0,2.376-.912,2.808-.912.24,0,.36.288.48.5A.363.363,0,0,0,46.272,0h.816a.481.481,0,0,0,.48-.48V-8.4c0-2.52-1.512-3.84-4.368-3.84-2.76,0-4.368,1.272-4.368,3.432a.431.431,0,0,0,.48.48h1.1c.384,0,.552-.12.552-.408,0-1.032.816-1.608,2.208-1.608,1.44,0,2.232.648,2.232,1.872v.984a.227.227,0,0,1-.24.24H42.6c-2.736,0-4.32,1.272-4.32,3.672C38.28-1.272,40.008.24,42.648.24Zm.168-1.992c-1.512,0-2.3-.648-2.3-1.872,0-1.128.744-1.656,2.328-1.656h2.52a.227.227,0,0,1,.24.24v.768C45.6-2.568,44.712-1.752,42.816-1.752ZM51.048,0h1.2a.481.481,0,0,0,.48-.48V-6.24c0-2.544,1.7-3.5,3.6-3.5h.48a.481.481,0,0,0,.48-.48v-1.3a.481.481,0,0,0-.48-.48h-.48c-2.568,0-2.976,1.32-3.552,1.32-.36,0-.36-.528-.432-.84-.072-.336-.216-.48-.48-.48h-.816a.481.481,0,0,0-.48.48V-.48A.481.481,0,0,0,51.048,0Zm12.12.24A5.025,5.025,0,0,0,66.24-.6a4.033,4.033,0,0,0,1.584-2.76.382.382,0,0,0-.408-.48H66.192a.542.542,0,0,0-.552.408A2.037,2.037,0,0,1,64.92-2.4a3.077,3.077,0,0,1-1.752.48,2.732,2.732,0,0,1-1.752-.552,3.029,3.029,0,0,1-.984-2.592.227.227,0,0,1,.24-.24h6.816a.481.481,0,0,0,.48-.48v-1.44A5.159,5.159,0,0,0,66.6-11.016a4.688,4.688,0,0,0-3.384-1.224,4.747,4.747,0,0,0-3.5,1.3A6.944,6.944,0,0,0,58.128-6c0,2.424.528,4.008,1.728,5.136A4.723,4.723,0,0,0,63.168.24ZM60.7-7.152a.227.227,0,0,1-.24-.24,2.977,2.977,0,0,1,.792-2.184,2.738,2.738,0,0,1,1.968-.744,2.511,2.511,0,0,1,1.872.744,2.977,2.977,0,0,1,.792,2.184.227.227,0,0,1-.24.24Z" transform="translate(1539.734 3108.576)" fill="#747474"/>
    <path id="路径_5183" data-name="路径 5183" d="M4.752,0h1.32a.481.481,0,0,0,.48-.48v-13.8a.227.227,0,0,1,.24-.24H9.96a.481.481,0,0,0,.48-.48v-1.32a.481.481,0,0,0-.48-.48H.84a.481.481,0,0,0-.48.48V-15a.481.481,0,0,0,.48.48H4.032a.227.227,0,0,1,.24.24V-.48A.481.481,0,0,0,4.752,0Zm6.84,0h1.2a.481.481,0,0,0,.48-.48V-6.24c0-2.544,1.7-3.5,3.6-3.5h.48a.481.481,0,0,0,.48-.48v-1.3a.481.481,0,0,0-.48-.48h-.48C14.3-12,13.9-10.68,13.32-10.68c-.36,0-.36-.528-.432-.84-.072-.336-.216-.48-.48-.48h-.816a.481.481,0,0,0-.48.48V-.48A.481.481,0,0,0,11.592,0ZM20.04-14.616h1.632A.379.379,0,0,0,22.056-15v-1.656a.4.4,0,0,0-.384-.384H20.04a.4.4,0,0,0-.384.384V-15A.379.379,0,0,0,20.04-14.616ZM20.232,0H21.48a.481.481,0,0,0,.48-.48V-11.52a.481.481,0,0,0-.48-.48H20.232a.481.481,0,0,0-.48.48V-.48A.481.481,0,0,0,20.232,0Zm8.616.24c1.776,0,2.376-.912,2.808-.912.24,0,.36.288.48.5A.363.363,0,0,0,32.472,0h.816a.481.481,0,0,0,.48-.48V-8.4c0-2.52-1.512-3.84-4.368-3.84-2.76,0-4.368,1.272-4.368,3.432a.431.431,0,0,0,.48.48h1.1c.384,0,.552-.12.552-.408,0-1.032.816-1.608,2.208-1.608,1.44,0,2.232.648,2.232,1.872v.984a.227.227,0,0,1-.24.24H28.8c-2.736,0-4.32,1.272-4.32,3.672C24.48-1.272,26.208.24,28.848.24Zm.168-1.992c-1.512,0-2.3-.648-2.3-1.872,0-1.128.744-1.656,2.328-1.656h2.52a.227.227,0,0,1,.24.24v.768C31.8-2.568,30.912-1.752,29.016-1.752ZM37.248,0h1.2a.481.481,0,0,0,.48-.48V-7.3a2.585,2.585,0,0,1,2.64-2.784c1.728,0,2.64,1.128,2.64,2.9v6.7a.481.481,0,0,0,.48.48h1.2a.481.481,0,0,0,.48-.48V-7.944c0-2.568-1.536-4.3-4.08-4.3-2.16,0-2.5.96-3.024.96-.384,0-.456-.312-.624-.552A.363.363,0,0,0,38.3-12H37.248a.481.481,0,0,0-.48.48V-.48A.481.481,0,0,0,37.248,0Zm19.08.72A2.153,2.153,0,0,1,54.1,2.88c-1.176,0-1.944-.36-2.16-1.2a.543.543,0,0,0-.624-.48H50.16c-.336,0-.48.192-.432.552C50.016,3.744,51.744,5.04,54.1,5.04A4.318,4.318,0,0,0,58.488.72V-11.52a.481.481,0,0,0-.48-.48h-.816c-.168,0-.288.048-.336.168-.168.384-.288.5-.48.5-.5,0-.864-.912-2.808-.912a4.109,4.109,0,0,0-3.888,2.064,9.136,9.136,0,0,0-.744,4.056A7.936,7.936,0,0,0,49.7-2.04,4.071,4.071,0,0,0,53.376,0c1.584,0,2.088-.768,2.52-.768.312,0,.432.216.432.768Zm-2.544-10.8a2.472,2.472,0,0,1,2.256,1.1,5.579,5.579,0,0,1,.432,2.856,5.726,5.726,0,0,1-.432,2.856,2.4,2.4,0,0,1-2.256,1.1,2.4,2.4,0,0,1-2.256-1.1A5.726,5.726,0,0,1,51.1-6.12a5.579,5.579,0,0,1,.432-2.856A2.4,2.4,0,0,1,53.784-10.08ZM62.088,0h1.2a.481.481,0,0,0,.48-.48V-16.56a.481.481,0,0,0-.48-.48h-1.2a.481.481,0,0,0-.48.48V-.48A.481.481,0,0,0,62.088,0ZM71.5.24A5.025,5.025,0,0,0,74.568-.6a4.033,4.033,0,0,0,1.584-2.76.382.382,0,0,0-.408-.48H74.52a.542.542,0,0,0-.552.408,2.037,2.037,0,0,1-.72,1.032,3.077,3.077,0,0,1-1.752.48,2.732,2.732,0,0,1-1.752-.552,3.029,3.029,0,0,1-.984-2.592A.227.227,0,0,1,69-5.3h6.816a.481.481,0,0,0,.48-.48v-1.44a5.159,5.159,0,0,0-1.368-3.792,4.688,4.688,0,0,0-3.384-1.224,4.747,4.747,0,0,0-3.5,1.3A6.944,6.944,0,0,0,66.456-6c0,2.424.528,4.008,1.728,5.136A4.723,4.723,0,0,0,71.5.24ZM69.024-7.152a.227.227,0,0,1-.24-.24,2.977,2.977,0,0,1,.792-2.184,2.738,2.738,0,0,1,1.968-.744,2.511,2.511,0,0,1,1.872.744,2.977,2.977,0,0,1,.792,2.184.227.227,0,0,1-.24.24Z" transform="translate(1539.734 2971.576)" fill="#747474"/>
  </g>
</svg>
